<?xml version="1.0" encoding="UTF-8"?>
<!-- Created with Inkscape (http://www.inkscape.org/) -->
<svg id="SVGRoot" width="35" height="35" enable-background="new" version="1.1" viewBox="0 0 100 100" xmlns="http://www.w3.org/2000/svg" xmlns:xlink="http://www.w3.org/1999/xlink">
 <defs>
  <clipPath id="patternClipPath">
   <rect id="clipPathRect" width="100" height="100" color="#000000" enable-background="accumulate" fill="#ff0"/>
  </clipPath>
 </defs>
 <g id="patternLayer">
  <use id="phantomBottom" width="100%" height="100%" opacity=".3" xlink:href="#designBottom"/>
  <use id="phantomTop" width="100%" height="100%" opacity=".3" xlink:href="#designTop"/>
  <g id="fullPattern" clip-path="url(#patternClipPath)">
   <g id="designBottom" display="none">
    <rect width="100" height="100" color="#000000" display="inline" enable-background="accumulate" fill="url(#radialGradient3070)"/>
   </g>
   <g id="designTop">
    <path transform="translate(.64435 6.6018)" d="m31.932 31.071 6.055 36.497h26.275l6.055-36.497h-23.546z" stroke="#000" stroke-width="1.1178px"/>
    <path transform="translate(.64435 6.6018)" d="m25.059 28.842 8.4839-4.1902h36.815l8.4839 4.1902h-32.991z" stroke="#000" stroke-width=".44833px"/>
    <path transform="translate(.64435 6.6018)" d="m50.592 19.228a11.488 7.0872 0 0 0-11.463 6.8438h4.0996a8.1418 5.8581 0 0 1 7.3652-3.4219 8.1418 5.8581 0 0 1 7.377 3.4219h4.0996a11.488 7.0872 0 0 0-11.479-6.8438z" stroke="#000" stroke-width="1.251"/>
    <circle cx="50.829" cy="52.212" r="45.827" fill="none" stroke="#000" stroke-width=".63111"/>
   </g>
   <g id="designBottomGenerator">
    <use transform="translate(-100,-100)" width="100%" height="100%" xlink:href="#designBottom"/>
    <use transform="translate(0,-100)" width="100%" height="100%" xlink:href="#designBottom"/>
    <use transform="translate(100,-100)" width="100%" height="100%" xlink:href="#designBottom"/>
    <use transform="translate(-100)" width="100%" height="100%" xlink:href="#designBottom"/>
    <use width="100%" height="100%" xlink:href="#designBottom"/>
    <use transform="translate(100)" width="100%" height="100%" xlink:href="#designBottom"/>
    <use transform="translate(-100,100)" width="100%" height="100%" xlink:href="#designBottom"/>
    <use transform="translate(0,100)" width="100%" height="100%" xlink:href="#designBottom"/>
    <use transform="translate(100,100)" width="100%" height="100%" xlink:href="#designBottom"/>
   </g>
   <g id="designTopGenerator">
    <use transform="translate(-100,-100)" width="100%" height="100%" xlink:href="#designTop"/>
    <use transform="translate(0,-100)" width="100%" height="100%" xlink:href="#designTop"/>
    <use transform="translate(100,-100)" width="100%" height="100%" xlink:href="#designTop"/>
    <use transform="translate(-100)" width="100%" height="100%" xlink:href="#designTop"/>
    <use width="100%" height="100%" xlink:href="#designTop"/>
    <use transform="translate(100)" width="100%" height="100%" xlink:href="#designTop"/>
    <use transform="translate(-100,100)" width="100%" height="100%" xlink:href="#designTop"/>
    <use transform="translate(0,100)" width="100%" height="100%" xlink:href="#designTop"/>
    <use transform="translate(100,100)" width="100%" height="100%" xlink:href="#designTop"/>
   </g>
  </g>
 </g>
</svg>
