<?xml version="1.0" encoding="UTF-8"?>
<!-- Created with Inkscape (http://www.inkscape.org/) -->
<svg id="SVGRoot" width="35" height="35" enable-background="new" version="1.1" viewBox="0 0 100 100" xmlns="http://www.w3.org/2000/svg" xmlns:xlink="http://www.w3.org/1999/xlink">
 <defs>
  <clipPath id="patternClipPath">
   <rect id="clipPathRect" width="100" height="100" color="#000000" enable-background="accumulate" fill="#ff0"/>
  </clipPath>
 </defs>
 <g id="patternLayer">
  <use id="phantomBottom" width="100%" height="100%" opacity=".3" xlink:href="#designBottom"/>
  <use id="phantomTop" width="100%" height="100%" opacity=".3" xlink:href="#designTop"/>
  <g id="fullPattern" clip-path="url(#patternClipPath)">
   <g id="designBottom" display="none">
    <rect width="100" height="100" color="#000000" display="inline" enable-background="accumulate" fill="url(#radialGradient3070)"/>
   </g>
   <g id="designTop">
    <rect transform="matrix(.76293 .83195 -.76293 .83195 46.591 -25.664)" x="42.796" y="6.7323" width="11.719" height="8.4838" ry="2.036" fill="#e6e6e6" stroke="#000" stroke-width=".21688"/>
    <path transform="matrix(.76293 .83195 -.76293 .83195 46.591 -25.664)" d="m42.787 13.236v61.137l5.8672 7.8438 5.8691-7.8438v-61.137z" stroke-width="1px"/>
    <path transform="matrix(.76293 .83195 -.76293 .83195 46.591 -25.664)" d="m45.721 78.295h5.8682l-2.9346 3.9219z" fill="#e6e6e6" stroke="#000" stroke-width=".1"/>
    <circle cx="50.829" cy="52.212" r="45.827" fill="none" stroke="#000" stroke-width=".63111"/>
   </g>
   <g id="designBottomGenerator">
    <use transform="translate(-100,-100)" width="100%" height="100%" xlink:href="#designBottom"/>
    <use transform="translate(0,-100)" width="100%" height="100%" xlink:href="#designBottom"/>
    <use transform="translate(100,-100)" width="100%" height="100%" xlink:href="#designBottom"/>
    <use transform="translate(-100)" width="100%" height="100%" xlink:href="#designBottom"/>
    <use width="100%" height="100%" xlink:href="#designBottom"/>
    <use transform="translate(100)" width="100%" height="100%" xlink:href="#designBottom"/>
    <use transform="translate(-100,100)" width="100%" height="100%" xlink:href="#designBottom"/>
    <use transform="translate(0,100)" width="100%" height="100%" xlink:href="#designBottom"/>
    <use transform="translate(100,100)" width="100%" height="100%" xlink:href="#designBottom"/>
   </g>
   <g id="designTopGenerator">
    <use transform="translate(-100,-100)" width="100%" height="100%" xlink:href="#designTop"/>
    <use transform="translate(0,-100)" width="100%" height="100%" xlink:href="#designTop"/>
    <use transform="translate(100,-100)" width="100%" height="100%" xlink:href="#designTop"/>
    <use transform="translate(-100)" width="100%" height="100%" xlink:href="#designTop"/>
    <use width="100%" height="100%" xlink:href="#designTop"/>
    <use transform="translate(100)" width="100%" height="100%" xlink:href="#designTop"/>
    <use transform="translate(-100,100)" width="100%" height="100%" xlink:href="#designTop"/>
    <use transform="translate(0,100)" width="100%" height="100%" xlink:href="#designTop"/>
    <use transform="translate(100,100)" width="100%" height="100%" xlink:href="#designTop"/>
   </g>
  </g>
 </g>
</svg>
