<?xml version="1.0" encoding="UTF-8"?>
<!-- Created with Inkscape (http://www.inkscape.org/) -->
<svg id="SVGRoot" width="100" height="100" enable-background="new" version="1.1" viewBox="0 0 100 100" xmlns="http://www.w3.org/2000/svg" xmlns:xlink="http://www.w3.org/1999/xlink">
 <defs>
  <clipPath id="patternClipPath">
   <rect id="clipPathRect" width="100" height="100" color="#000000" enable-background="accumulate" fill="#ff0"/>
  </clipPath>
  <filter id="filter246" x="-.17379" y="-.15404" width="1.3476" height="1.3081" color-interpolation-filters="sRGB">
   <feGaussianBlur result="fbSourceGraphic" stdDeviation="0.5 0.5"/>
   <feColorMatrix in="fbSourceGraphic" result="fbSourceGraphicAlpha" values="0 0 0 -1 0 0 0 0 -1 0 0 0 0 -1 0 0 0 0 1 0"/>
   <feGaussianBlur in="fbSourceGraphic" result="blur" stdDeviation="0.5 0.5"/>
  </filter>
  <filter id="filter260" x="-.049244" y="-.10372" width="1.0969" height="1.2056" color-interpolation-filters="sRGB">
   <feTurbulence baseFrequency="0.25 0.4" numOctaves="3" seed="5" type="fractalNoise"/>
   <feColorMatrix result="result5" values="1 0 0 0 0 0 1 0 0 0 0 0 1 0 0 0 0 0 1 0 "/>
   <feComposite in="SourceGraphic" in2="result5" operator="in"/>
   <feMorphology operator="dilate" radius="1.5" result="result3"/>
   <feTurbulence baseFrequency="0.03" numOctaves="5" seed="7" type="fractalNoise"/>
   <feGaussianBlur result="result91" stdDeviation="0.5"/>
   <feDisplacementMap in="result3" in2="result91" result="result4" scale="27" xChannelSelector="R" yChannelSelector="G"/>
   <feComposite in="result4" in2="result4" k1="1.3" k3="0.8" operator="arithmetic" result="result2"/>
   <feBlend in="result2" in2="result2" mode="screen"/>
  </filter>
 </defs>
 <g id="patternLayer">
  <use id="phantomBottom" width="100%" height="100%" opacity=".3" xlink:href="#designBottom"/>
  <use id="phantomTop" width="100%" height="100%" opacity=".3" xlink:href="#designTop"/>
  <g id="fullPattern" clip-path="url(#patternClipPath)">
   <g id="designBottom" display="none">
    <rect width="100" height="100" color="#000000" display="inline" enable-background="accumulate" fill="url(#radialGradient3070)"/>
   </g>
   <g id="designTop">
    <circle cx="50.829" cy="52.212" r="45.827" fill="none" stroke="#000" stroke-width=".63111"/>
    <path transform="matrix(1.7845 0 0 1.7845 -35.862 -27.651)" d="m49.218 32.835c-9.5696 0.7495-25.203 11.918-25.203 11.918 5.3318 5.652 15.158 11.54 24.178 11.932 0.15458 0.0071 0.30966 0.01214 0.46492 0.01574 0.20525 0.0046 0.76291 0.0152 1.4264-0.01574 9.0188-0.39291 18.843-6.2808 24.174-11.932 0 0-15.471-11.17-25.04-11.918z" fill="#fff" stroke="#000" stroke-width=".88069px"/>
    <ellipse transform="matrix(1.7845 0 0 1.7845 -35.862 -27.651)" cx="49.136" cy="44.77" rx="7.1787" ry="9.8982" fill="#808080" stroke="#000" stroke-width=".8136"/>
    <ellipse transform="matrix(1.7845 0 0 1.7845 -35.862 -27.651)" cx="49.121" cy="44.854" rx="2.9613" ry="7.4075" stroke="#000" stroke-width=".45205"/>
    <path transform="matrix(1.7845 0 0 1.7845 -35.862 -27.651)" d="m49.097 35.213c-0.01114 2.61e-4 -0.02312 0.0014-0.03405 2e-3 -1.5875 0.07776-4.4868 1.0386-6.2635 5.6992-0.66619 1.7475-0.70938 4.0725-0.35565 6.0254 0.30497 1.6836 1.6439 3.8535 1.6439 3.8535s-1.099-2.6129-1.2372-4.0078c-0.17928-1.8098-0.2791-2.3033 0.55239-5.4277 0.81387-3.0582 2.7836-5.3082 5.7263-5.4023 2.9427 0.0941 4.9124 2.3441 5.7263 5.4023 0.83149 3.1244 0.73167 3.618 0.55239 5.4277-0.13818 1.3949-1.2372 4.0078-1.2372 4.0078s1.3389-2.1699 1.6439-3.8535c0.35373-1.9529 0.31055-4.2779-0.35565-6.0254-1.7764-4.6598-4.6759-5.6212-6.2635-5.6992-0.02201-0.0011-0.04471-0.0012-0.06621-2e-3 -0.0107 3.71e-4 -0.02101-2.62e-4 -0.03216 0z" filter="url(#filter246)" stroke-width=".23053"/>
    <path transform="matrix(1.7845 0 0 1.7845 -35.862 -27.651)" d="m49.097 35.213c-0.01114 2.61e-4 -0.02312 0.0014-0.03405 2e-3 -1.5875 0.07776-4.4868 1.0386-6.2635 5.6992-0.66619 1.7475-0.70938 4.0725-0.35565 6.0254 0.30497 1.6836 1.6439 3.8535 1.6439 3.8535s-1.099-2.6129-1.2372-4.0078c-0.17928-1.8098-0.2791-2.3033 0.55239-5.4277 0.81387-3.0582 2.7836-5.3082 5.7263-5.4023 2.9427 0.0941 4.9124 2.3441 5.7263 5.4023 0.83149 3.1244 0.73167 3.618 0.55239 5.4277-0.13818 1.3949-1.2372 4.0078-1.2372 4.0078s1.3389-2.1699 1.6439-3.8535c0.35373-1.9529 0.31055-4.2779-0.35565-6.0254-1.7764-4.6598-4.6759-5.6212-6.2635-5.6992-0.02201-0.0011-0.04471-0.0012-0.06621-2e-3 -0.0107 3.71e-4 -0.02101-2.62e-4 -0.03216 0z" filter="url(#filter246)" stroke-width=".23053"/>
    <path transform="matrix(1.7845 0 0 1.7845 -35.862 -27.651)" d="m49.096 35.213c-4.5079 0.39558-7.2098 5.2362-7.1104 9.4116-0.18472 1.8454 1.0745 5.0598 1.7027 5.6372-1.8628-3.9431-1.4267-8.9846 1.3556-12.383 1.949-2.4598 5.9628-2.54 8.0311-0.16772 1.9772 2.1568 2.6707 5.2674 2.6105 8.1283 0.12449 1.4194-0.95513 3.7899-1.0274 4.4517 3.0917-4.7462 1.693-12.273-3.6946-14.698-0.59393-0.23402-1.2286-0.36863-1.8675-0.38007z" fill="#eee" stroke-width=".23424"/>
    <ellipse transform="matrix(1.7845 0 0 1.7845 -35.862 -27.651)" cx="49.062" cy="48.959" rx="1.2558" ry="2.0906" fill="#fff"/>
    <path transform="matrix(1.3621 0 0 1.3621 -17.831 -10.165)" d="m21.697 59.905c14.78-11.144 32.499-17.17 48.991-25.204 3.992-1.7226 7.986-3.4412 11.952-5.224" fill="none" filter="url(#filter260)" stroke="#cd1212" stroke-width="1px"/>
   </g>
   <g display="none">
    <g>
     <g>
      <rect transform="rotate(-15)" x="10.753" y="34.43" width="48.134" height="53.328" ry="5.2751" display="inline" fill="#fff" stroke="#000"/>
      <rect transform="rotate(-15)" x="10.753" y="61.094" width="39.591" height="6.3543" display="inline" fill="#dd6b2c"/>
      <rect transform="rotate(-15)" x="11.218" y="71.262" width="22.993" height="6.3543" display="inline" fill="#fddc87"/>
      <path d="m47.597 22.891 13.802 51.511" fill="#135c91" stroke="#135c91" stroke-width="1px"/>
      <rect transform="rotate(-15)" x="10.419" y="51.39" width="10.546" height="6.3543" display="inline" fill="#dd6b2c"/>
      <rect transform="rotate(-15)" x="11.131" y="42.401" width="26.188" height="6.3543" display="inline" fill="#dc6b2c"/>
     </g>
     <g fill="#fff">
      <circle cx="44.983" cy="35.231" r="1.0455"/>
      <circle cx="40.276" cy="36.389" r="1.0455"/>
      <circle cx="35.196" cy="37.755" r="1.0455"/>
      <circle cx="30.439" cy="38.977" r="1.0455"/>
      <circle cx="26.038" cy="40.136" r="1.0455"/>
     </g>
     <rect transform="rotate(-15)" x="10.753" y="34.43" width="48.134" height="53.328" ry="5.2751" display="inline" fill="none" stroke="#000"/>
     <g transform="translate(0 2.963)" display="inline" stroke="#000">
      <path d="m70.098 31.078c-2.3803 1.662-4.4715 3.6685-5.6387 6.2109-0.82875 1.8053-1.3942 4.1905 0 5.959-0.38381-2.3075 5.1787-4.5982 6.6797-5.1719 1.5262-0.58331 3.0924-1.0675 4.6777-1.4766 0.86206-0.98506 3.7038-2.2149 1.0645-1.9961-2.562-0.02628-5.2369-0.18458-7.6328 0.86914 0.75684-1.7848 2.6766-3.1827 4.3574-4.2539 0.46046-1.0529-2.3692-0.45416-3.5078-0.14062z" fill="#dd6b2c" stroke-width=".9"/>
      <path d="m70.098 31.078c1.1386-0.31353 3.9683-0.91224 3.5078 0.14062-1.6808 1.0712-3.6006 2.4691-4.3574 4.2539 2.3959-1.0537 5.0708-0.89542 7.6328-0.86914 2.6393-0.2188-0.20239 1.011-1.0645 1.9961 1.1554-0.29812 2.3202-0.55809 3.4902-0.7793 3.1312-0.59197 6.3125-1.1028 9.5098-0.99414 1.4117 1.7e-5 7.3008 0.99414 7.3008 0.99414l-9.3945-3.2676c4.4391-1.291 3.2476-0.51883 6.457-1.2051 0.72017-0.15399 1.6606-0.38199 2.9375-0.72266 0 0-5.4278-2.3453-8.3105-2.6562-1.8401-0.07681-5.5156 0.16211-5.5156 0.16211l7.2148-1.9688s-2.7521-0.63129-4.1191-0.54688c-3.1926 0.48257-7.138 0.90256-10.273 2.5156-1.6765 0.86251-3.4114 1.8272-5.0156 2.9473z" fill="#fddc87" stroke-width=".8"/>
     </g>
    </g>
    <rect x="-11.065" y="-20.856" width="127.24" height="130.81" display="none" style="mix-blend-mode:color"/>
   </g>
   <g id="designBottomGenerator">
    <use transform="translate(-100,-100)" width="100%" height="100%" xlink:href="#designBottom"/>
    <use transform="translate(0,-100)" width="100%" height="100%" xlink:href="#designBottom"/>
    <use transform="translate(100,-100)" width="100%" height="100%" xlink:href="#designBottom"/>
    <use transform="translate(-100)" width="100%" height="100%" xlink:href="#designBottom"/>
    <use width="100%" height="100%" xlink:href="#designBottom"/>
    <use transform="translate(100)" width="100%" height="100%" xlink:href="#designBottom"/>
    <use transform="translate(-100,100)" width="100%" height="100%" xlink:href="#designBottom"/>
    <use transform="translate(0,100)" width="100%" height="100%" xlink:href="#designBottom"/>
    <use transform="translate(100,100)" width="100%" height="100%" xlink:href="#designBottom"/>
   </g>
   <g id="designTopGenerator">
    <use transform="translate(-100,-100)" width="100%" height="100%" xlink:href="#designTop"/>
    <use transform="translate(0,-100)" width="100%" height="100%" xlink:href="#designTop"/>
    <use transform="translate(100,-100)" width="100%" height="100%" xlink:href="#designTop"/>
    <use transform="translate(-100)" width="100%" height="100%" xlink:href="#designTop"/>
    <use width="100%" height="100%" xlink:href="#designTop"/>
    <use transform="translate(100)" width="100%" height="100%" xlink:href="#designTop"/>
    <use transform="translate(-100,100)" width="100%" height="100%" xlink:href="#designTop"/>
    <use transform="translate(0,100)" width="100%" height="100%" xlink:href="#designTop"/>
    <use transform="translate(100,100)" width="100%" height="100%" xlink:href="#designTop"/>
   </g>
  </g>
 </g>
</svg>
