<?xml version="1.0" encoding="UTF-8"?>
<!-- Created with Inkscape (http://www.inkscape.org/) -->
<svg id="SVGRoot" width="100" height="100" enable-background="new" version="1.1" viewBox="0 0 100 100" xmlns="http://www.w3.org/2000/svg" xmlns:xlink="http://www.w3.org/1999/xlink">
 <defs>
  <clipPath id="patternClipPath">
   <rect id="clipPathRect" width="100" height="100" color="#000000" enable-background="accumulate" fill="#ff0"/>
  </clipPath>
  <filter id="filter246" x="-.17379" y="-.15404" width="1.3476" height="1.3081" color-interpolation-filters="sRGB">
   <feGaussianBlur result="fbSourceGraphic" stdDeviation="0.5 0.5"/>
   <feColorMatrix in="fbSourceGraphic" result="fbSourceGraphicAlpha" values="0 0 0 -1 0 0 0 0 -1 0 0 0 0 -1 0 0 0 0 1 0"/>
   <feGaussianBlur in="fbSourceGraphic" result="blur" stdDeviation="0.5 0.5"/>
  </filter>
 </defs>
 <g id="patternLayer">
  <use id="phantomBottom" width="100%" height="100%" opacity=".3" xlink:href="#designBottom"/>
  <use id="phantomTop" width="100%" height="100%" opacity=".3" xlink:href="#designTop"/>
  <g id="fullPattern" clip-path="url(#patternClipPath)">
   <g id="designBottom" display="none">
    <rect width="100" height="100" color="#000000" display="inline" enable-background="accumulate" fill="url(#radialGradient3070)"/>
   </g>
   <g id="designTop">
    <path transform="matrix(1.656 0 0 1.656 -29.785 -21.927)" d="m49.218 32.835c-9.5696 0.7495-25.203 11.918-25.203 11.918 5.3318 5.652 15.158 11.54 24.178 11.932 0.15458 0.0071 0.30966 0.01214 0.46492 0.01574 0.20525 0.0046 0.76291 0.0152 1.4264-0.01574 9.0188-0.39291 18.843-6.2808 24.174-11.932 0 0-15.471-11.17-25.04-11.918z" fill="#fff" stroke="#000" stroke-width=".88069px"/>
    <ellipse transform="matrix(1.656 0 0 1.656 -29.785 -21.927)" cx="49.136" cy="44.77" rx="7.1787" ry="9.8982" fill="#808080" stroke="#000" stroke-width=".8136"/>
    <ellipse transform="matrix(1.656 0 0 1.656 -29.785 -21.927)" cx="49.121" cy="44.854" rx="2.9613" ry="7.4075" stroke="#000" stroke-width=".45205"/>
    <path transform="matrix(1.656 0 0 1.656 -29.785 -21.927)" d="m49.097 35.213c-0.01114 2.61e-4 -0.02312 0.0014-0.03405 2e-3 -1.5875 0.07776-4.4868 1.0386-6.2635 5.6992-0.66619 1.7475-0.70938 4.0725-0.35565 6.0254 0.30497 1.6836 1.6439 3.8535 1.6439 3.8535s-1.099-2.6129-1.2372-4.0078c-0.17928-1.8098-0.2791-2.3033 0.55239-5.4277 0.81387-3.0582 2.7836-5.3082 5.7263-5.4023 2.9427 0.0941 4.9124 2.3441 5.7263 5.4023 0.83149 3.1244 0.73167 3.618 0.55239 5.4277-0.13818 1.3949-1.2372 4.0078-1.2372 4.0078s1.3389-2.1699 1.6439-3.8535c0.35373-1.9529 0.31055-4.2779-0.35565-6.0254-1.7764-4.6598-4.6759-5.6212-6.2635-5.6992-0.02201-0.0011-0.04471-0.0012-0.06621-2e-3 -0.0107 3.71e-4 -0.02101-2.62e-4 -0.03216 0z" filter="url(#filter246)" stroke-width=".23053"/>
    <path transform="matrix(1.656 0 0 1.656 -29.785 -21.927)" d="m49.097 35.213c-0.01114 2.61e-4 -0.02312 0.0014-0.03405 2e-3 -1.5875 0.07776-4.4868 1.0386-6.2635 5.6992-0.66619 1.7475-0.70938 4.0725-0.35565 6.0254 0.30497 1.6836 1.6439 3.8535 1.6439 3.8535s-1.099-2.6129-1.2372-4.0078c-0.17928-1.8098-0.2791-2.3033 0.55239-5.4277 0.81387-3.0582 2.7836-5.3082 5.7263-5.4023 2.9427 0.0941 4.9124 2.3441 5.7263 5.4023 0.83149 3.1244 0.73167 3.618 0.55239 5.4277-0.13818 1.3949-1.2372 4.0078-1.2372 4.0078s1.3389-2.1699 1.6439-3.8535c0.35373-1.9529 0.31055-4.2779-0.35565-6.0254-1.7764-4.6598-4.6759-5.6212-6.2635-5.6992-0.02201-0.0011-0.04471-0.0012-0.06621-2e-3 -0.0107 3.71e-4 -0.02101-2.62e-4 -0.03216 0z" filter="url(#filter246)" stroke-width=".23053"/>
    <path transform="matrix(1.656 0 0 1.656 -29.785 -21.927)" d="m49.096 35.213c-4.5079 0.39558-7.2098 5.2362-7.1104 9.4116-0.18472 1.8454 1.0745 5.0598 1.7027 5.6372-1.8628-3.9431-1.4267-8.9846 1.3556-12.383 1.949-2.4598 5.9628-2.54 8.0311-0.16772 1.9772 2.1568 2.6707 5.2674 2.6105 8.1283 0.12449 1.4194-0.95513 3.7899-1.0274 4.4517 3.0917-4.7462 1.693-12.273-3.6946-14.698-0.59393-0.23402-1.2286-0.36863-1.8675-0.38007z" fill="#eee" stroke-width=".23424"/>
    <ellipse transform="matrix(1.656 0 0 1.656 -29.785 -21.927)" cx="49.062" cy="48.959" rx="1.2558" ry="2.0906" fill="#fff"/>
    <circle cx="50.829" cy="52.212" r="45.827" fill="none" stroke="#000" stroke-width=".63111"/>
   </g>
   <g id="designBottomGenerator">
    <use transform="translate(-100,-100)" width="100%" height="100%" xlink:href="#designBottom"/>
    <use transform="translate(0,-100)" width="100%" height="100%" xlink:href="#designBottom"/>
    <use transform="translate(100,-100)" width="100%" height="100%" xlink:href="#designBottom"/>
    <use transform="translate(-100)" width="100%" height="100%" xlink:href="#designBottom"/>
    <use width="100%" height="100%" xlink:href="#designBottom"/>
    <use transform="translate(100)" width="100%" height="100%" xlink:href="#designBottom"/>
    <use transform="translate(-100,100)" width="100%" height="100%" xlink:href="#designBottom"/>
    <use transform="translate(0,100)" width="100%" height="100%" xlink:href="#designBottom"/>
    <use transform="translate(100,100)" width="100%" height="100%" xlink:href="#designBottom"/>
   </g>
   <g id="designTopGenerator">
    <use transform="translate(-100,-100)" width="100%" height="100%" xlink:href="#designTop"/>
    <use transform="translate(0,-100)" width="100%" height="100%" xlink:href="#designTop"/>
    <use transform="translate(100,-100)" width="100%" height="100%" xlink:href="#designTop"/>
    <use transform="translate(-100)" width="100%" height="100%" xlink:href="#designTop"/>
    <use width="100%" height="100%" xlink:href="#designTop"/>
    <use transform="translate(100)" width="100%" height="100%" xlink:href="#designTop"/>
    <use transform="translate(-100,100)" width="100%" height="100%" xlink:href="#designTop"/>
    <use transform="translate(0,100)" width="100%" height="100%" xlink:href="#designTop"/>
    <use transform="translate(100,100)" width="100%" height="100%" xlink:href="#designTop"/>
   </g>
  </g>
 </g>
</svg>
