<?xml version="1.0" encoding="UTF-8"?>
<!-- Created with Inkscape (http://www.inkscape.org/) -->
<svg id="SVGRoot" width="100" height="100" enable-background="new" version="1.1" viewBox="0 0 100 100" xmlns="http://www.w3.org/2000/svg" xmlns:xlink="http://www.w3.org/1999/xlink">
 <defs>
  <clipPath id="patternClipPath">
   <rect id="clipPathRect" width="100" height="100" color="#000000" enable-background="accumulate" fill="#ff0"/>
  </clipPath>
 </defs>
 <g id="patternLayer">
  <use id="phantomBottom" width="100%" height="100%" opacity=".3" xlink:href="#designBottom"/>
  <use id="phantomTop" width="100%" height="100%" opacity=".3" xlink:href="#designTop"/>
  <g id="fullPattern" clip-path="url(#patternClipPath)">
   <g id="designBottom" display="none">
    <rect width="100" height="100" color="#000000" display="inline" enable-background="accumulate" fill="url(#radialGradient3070)"/>
   </g>
   <g id="designTop">
    <path transform="translate(-1.8099 14.952)" d="m31.932 31.071 6.055 36.497h26.275l6.055-36.497h-23.546z" stroke="#000" stroke-width="1.1178px"/>
    <path transform="translate(-1.8099 14.952)" d="m45.085 7.9893c-4.581 2.6549-7.4442 6.8945-6.9328 10.266l-5.12 2.9561-5.252 7.8721 46.578-26.892-9.4434 0.61232-7.4576 4.3057c-2.667-2.131-7.7789-1.7675-12.372 0.87997zm1.7127 2.9624c2.0168-1.144 4.2846-1.6124 6.2343-1.2877l-10.457 6.0371c0.69246-1.8476 2.2279-3.5747 4.2222-4.7494z" stroke="#000" stroke-width=".44833px"/>
    <path transform="translate(-2.445 10.849)" d="m71.472 23.298 6.7818-2.6392-5.5619-4.2211z"/>
    <path transform="translate(-2.445 10.849)" d="m46.455 31.663c7.3842-6.5938 16.711-11.484 26.773-11.736" fill="none" stroke="#000" stroke-width="1px"/>
    <circle cx="50.829" cy="52.212" r="45.827" fill="none" stroke="#000" stroke-width=".63111"/>
   </g>
   <g id="designBottomGenerator">
    <use transform="translate(-100,-100)" width="100%" height="100%" xlink:href="#designBottom"/>
    <use transform="translate(0,-100)" width="100%" height="100%" xlink:href="#designBottom"/>
    <use transform="translate(100,-100)" width="100%" height="100%" xlink:href="#designBottom"/>
    <use transform="translate(-100)" width="100%" height="100%" xlink:href="#designBottom"/>
    <use width="100%" height="100%" xlink:href="#designBottom"/>
    <use transform="translate(100)" width="100%" height="100%" xlink:href="#designBottom"/>
    <use transform="translate(-100,100)" width="100%" height="100%" xlink:href="#designBottom"/>
    <use transform="translate(0,100)" width="100%" height="100%" xlink:href="#designBottom"/>
    <use transform="translate(100,100)" width="100%" height="100%" xlink:href="#designBottom"/>
   </g>
   <g id="designTopGenerator">
    <use transform="translate(-100,-100)" width="100%" height="100%" xlink:href="#designTop"/>
    <use transform="translate(0,-100)" width="100%" height="100%" xlink:href="#designTop"/>
    <use transform="translate(100,-100)" width="100%" height="100%" xlink:href="#designTop"/>
    <use transform="translate(-100)" width="100%" height="100%" xlink:href="#designTop"/>
    <use width="100%" height="100%" xlink:href="#designTop"/>
    <use transform="translate(100)" width="100%" height="100%" xlink:href="#designTop"/>
    <use transform="translate(-100,100)" width="100%" height="100%" xlink:href="#designTop"/>
    <use transform="translate(0,100)" width="100%" height="100%" xlink:href="#designTop"/>
    <use transform="translate(100,100)" width="100%" height="100%" xlink:href="#designTop"/>
   </g>
  </g>
 </g>
</svg>
