<?xml version="1.0" encoding="UTF-8"?>
<!-- Created with Inkscape (http://www.inkscape.org/) -->
<svg id="SVGRoot" width="100" height="100" enable-background="new" version="1.1" viewBox="0 0 100 100" xmlns="http://www.w3.org/2000/svg" xmlns:xlink="http://www.w3.org/1999/xlink">
 <defs>
  <clipPath id="patternClipPath">
   <rect id="clipPathRect" width="100" height="100" color="#000000" enable-background="accumulate" fill="#ff0"/>
  </clipPath>
 </defs>
 <g id="patternLayer">
  <use id="phantomBottom" width="100%" height="100%" opacity=".3" xlink:href="#designBottom"/>
  <g id="fullPattern" clip-path="url(#patternClipPath)">
   <g id="designBottom" display="none">
    <rect width="100" height="100" color="#000000" display="inline" enable-background="accumulate" fill="url(#radialGradient3070)"/>
   </g>
   <g id="designTop" transform="rotate(-25.102 51.102 53.405)" opacity=".5">
    <rect transform="rotate(-15)" x="10.753" y="34.43" width="48.134" height="53.328" ry="5.2751" fill="#fff" stroke="#135c91"/>
    <rect transform="rotate(-15)" x="10.753" y="61.094" width="39.591" height="6.3543" fill="#dd6b2c"/>
    <rect transform="rotate(-15)" x="11.218" y="71.262" width="22.993" height="6.3543" fill="#135c91"/>
    <path d="m47.597 22.891 13.802 51.511" fill="#135c91" stroke="#135c91" stroke-width="1px"/>
    <rect transform="rotate(-15)" x="10.419" y="51.39" width="10.546" height="6.3543" fill="#dd6b2c"/>
    <rect transform="rotate(-15)" x="11.131" y="42.401" width="26.188" height="6.3543" fill="#dc6b2c"/>
    <circle cx="44.983" cy="35.231" r="1.0455" fill="#fff"/>
    <circle cx="40.276" cy="36.389" r="1.0455" fill="#fff"/>
    <circle cx="35.196" cy="37.755" r="1.0455" fill="#fff"/>
    <circle cx="30.439" cy="38.977" r="1.0455" fill="#fff"/>
    <circle cx="26.038" cy="40.136" r="1.0455" fill="#fff"/>
    <rect transform="rotate(-15)" x="10.753" y="34.43" width="48.134" height="53.328" ry="5.2751" fill="none" stroke="#135c91"/>
    <path transform="translate(0,2.963)" d="m70.098 31.078c-2.3803 1.662-4.4715 3.6685-5.6387 6.2109-0.82875 1.8053-1.3942 4.1905 0 5.959-0.38381-2.3075 5.1787-4.5982 6.6797-5.1719 1.5262-0.58331 3.0924-1.0675 4.6777-1.4766 0.86206-0.98506 3.7038-2.2149 1.0645-1.9961-2.562-0.02628-5.2369-0.18458-7.6328 0.86914 0.75684-1.7848 2.6766-3.1827 4.3574-4.2539 0.46046-1.0529-2.3692-0.45416-3.5078-0.14062z" fill="#dd6b2c" stroke="#000" stroke-width=".9"/>
    <path transform="translate(0,2.963)" d="m70.098 31.078c1.1386-0.31353 3.9683-0.91224 3.5078 0.14062-1.6808 1.0712-3.6006 2.4691-4.3574 4.2539 2.3959-1.0537 5.0708-0.89542 7.6328-0.86914 2.6393-0.2188-0.20239 1.011-1.0645 1.9961 1.1554-0.29812 2.3202-0.55809 3.4902-0.7793 3.1312-0.59197 6.3125-1.1028 9.5098-0.99414 1.4117 1.7e-5 7.3008 0.99414 7.3008 0.99414l-9.3945-3.2676c4.4391-1.291 3.2476-0.51883 6.457-1.2051 0.72017-0.15399 1.6606-0.38199 2.9375-0.72266 0 0-5.4278-2.3453-8.3105-2.6562-1.8401-0.07681-5.5156 0.16211-5.5156 0.16211l7.2148-1.9688s-2.7521-0.63129-4.1191-0.54688c-3.1926 0.48257-7.138 0.90256-10.273 2.5156-1.6765 0.86251-3.4114 1.8272-5.0156 2.9473z" fill="#fddc87" stroke="#000" stroke-width=".8"/>
    <g transform="translate(0,2.963)">
     <path d="m70.098 31.078c-2.3803 1.662-4.4715 3.6685-5.6387 6.2109-0.82875 1.8053-1.3942 4.1905 0 5.959-0.38381-2.3075 5.1787-4.5982 6.6797-5.1719 1.5262-0.58331 3.0924-1.0675 4.6777-1.4766 0.86206-0.98506 3.7038-2.2149 1.0645-1.9961-2.562-0.02628-5.2369-0.18458-7.6328 0.86914 0.75684-1.7848 2.6766-3.1827 4.3574-4.2539 0.46046-1.0529-2.3692-0.45416-3.5078-0.14062z" fill="#dd6b2c" stroke="#dd6b2c" stroke-width=".9"/>
     <path d="m70.098 31.078c1.1386-0.31353 3.9683-0.91224 3.5078 0.14062-1.6808 1.0712-3.6006 2.4691-4.3574 4.2539 2.3959-1.0537 5.0708-0.89542 7.6328-0.86914 2.6393-0.2188-0.20239 1.011-1.0645 1.9961 1.1554-0.29812 2.3202-0.55809 3.4902-0.7793 3.1312-0.59197 6.3125-1.1028 9.5098-0.99414 1.4117 1.7e-5 7.3008 0.99414 7.3008 0.99414l-9.3945-3.2676c4.4391-1.291 3.2476-0.51883 6.457-1.2051 0.72017-0.15399 1.6606-0.38199 2.9375-0.72266 0 0-5.4278-2.3453-8.3105-2.6562-1.8401-0.07681-5.5156 0.16211-5.5156 0.16211l7.2148-1.9688s-2.7521-0.63129-4.1191-0.54688c-3.1926 0.48257-7.138 0.90256-10.273 2.5156-1.6765 0.86251-3.4114 1.8272-5.0156 2.9473z" fill="#fddc87" stroke="#fddc87" stroke-width=".8"/>
    </g>
   </g>
   <g id="designBottomGenerator" display="none">
    <use transform="translate(-100,-100)" width="100%" height="100%" xlink:href="#designBottom"/>
    <use transform="translate(0,-100)" width="100%" height="100%" xlink:href="#designBottom"/>
    <use transform="translate(100,-100)" width="100%" height="100%" xlink:href="#designBottom"/>
    <use transform="translate(-100)" width="100%" height="100%" xlink:href="#designBottom"/>
    <use width="100%" height="100%" xlink:href="#designBottom"/>
    <use transform="translate(100)" width="100%" height="100%" xlink:href="#designBottom"/>
    <use transform="translate(-100,100)" width="100%" height="100%" xlink:href="#designBottom"/>
    <use transform="translate(0,100)" width="100%" height="100%" xlink:href="#designBottom"/>
    <use transform="translate(100,100)" width="100%" height="100%" xlink:href="#designBottom"/>
   </g>
   <g id="designTopGenerator" display="none">
    <use transform="translate(-88.216 -116.48)" width="100%" height="100%" xlink:href="#designTop"/>
    <use transform="translate(11.784 -116.48)" width="100%" height="100%" xlink:href="#designTop"/>
    <use transform="translate(111.78 -116.48)" width="100%" height="100%" xlink:href="#designTop"/>
    <use transform="translate(-88.216 -16.48)" width="100%" height="100%" xlink:href="#designTop"/>
    <use transform="translate(11.784 -16.48)" width="100%" height="100%" xlink:href="#designTop"/>
    <use transform="translate(111.78 -16.48)" width="100%" height="100%" xlink:href="#designTop"/>
    <use transform="translate(-88.216 83.52)" width="100%" height="100%" xlink:href="#designTop"/>
    <use transform="translate(11.784 83.52)" width="100%" height="100%" xlink:href="#designTop"/>
    <use transform="translate(111.78 83.52)" width="100%" height="100%" xlink:href="#designTop"/>
   </g>
  </g>
 </g>
</svg>
