<?xml version="1.0" encoding="UTF-8"?>
<!-- Created with Inkscape (http://www.inkscape.org/) -->
<svg id="SVGRoot" width="100" height="100" enable-background="new" version="1.1" viewBox="0 0 100 100" xmlns="http://www.w3.org/2000/svg" xmlns:xlink="http://www.w3.org/1999/xlink">
 <defs>
  <clipPath id="patternClipPath">
   <rect id="clipPathRect" width="100" height="100" color="#000000" enable-background="accumulate" fill="#ff0"/>
  </clipPath>
 </defs>
 <g id="patternLayer">
  <use id="phantomBottom" width="100%" height="100%" opacity=".3" xlink:href="#designBottom"/>
  <use id="phantomTop" width="100%" height="100%" opacity=".3" xlink:href="#designTop"/>
  <g id="fullPattern" clip-path="url(#patternClipPath)">
   <g id="designBottom" display="none">
    <rect width="100" height="100" color="#000000" display="inline" enable-background="accumulate" fill="url(#radialGradient3070)"/>
   </g>
   <g id="designTop">
    <path transform="translate(22.13 26.279)" d="m47.846 60.362-23.058-15.396-25.755 10.266 7.5176-26.687-17.722-21.322 27.704-1.0971 14.802-23.444 9.6043 26.009 26.87 6.8331-21.768 17.171z" fill="none" stroke="#000"/>
   </g>
   <g id="designBottomGenerator">
    <use transform="translate(-100,-100)" width="100%" height="100%" xlink:href="#designBottom"/>
    <use transform="translate(0,-100)" width="100%" height="100%" xlink:href="#designBottom"/>
    <use transform="translate(100,-100)" width="100%" height="100%" xlink:href="#designBottom"/>
    <use transform="translate(-100)" width="100%" height="100%" xlink:href="#designBottom"/>
    <use width="100%" height="100%" xlink:href="#designBottom"/>
    <use transform="translate(100)" width="100%" height="100%" xlink:href="#designBottom"/>
    <use transform="translate(-100,100)" width="100%" height="100%" xlink:href="#designBottom"/>
    <use transform="translate(0,100)" width="100%" height="100%" xlink:href="#designBottom"/>
    <use transform="translate(100,100)" width="100%" height="100%" xlink:href="#designBottom"/>
   </g>
   <g id="designTopGenerator">
    <use transform="translate(-100,-100)" width="100%" height="100%" xlink:href="#designTop"/>
    <use transform="translate(0,-100)" width="100%" height="100%" xlink:href="#designTop"/>
    <use transform="translate(100,-100)" width="100%" height="100%" xlink:href="#designTop"/>
    <use transform="translate(-100)" width="100%" height="100%" xlink:href="#designTop"/>
    <use width="100%" height="100%" xlink:href="#designTop"/>
    <use transform="translate(100)" width="100%" height="100%" xlink:href="#designTop"/>
    <use transform="translate(-100,100)" width="100%" height="100%" xlink:href="#designTop"/>
    <use transform="translate(0,100)" width="100%" height="100%" xlink:href="#designTop"/>
    <use transform="translate(100,100)" width="100%" height="100%" xlink:href="#designTop"/>
   </g>
  </g>
 </g>
</svg>
